<?xml version="1.0" encoding="UTF-8" standalone="no"?>
<!-- Created with Inkscape (http://www.inkscape.org/) -->

<svg
   xmlns:dc="http://purl.org/dc/elements/1.1/"
   xmlns:cc="http://creativecommons.org/ns#"
   xmlns:rdf="http://www.w3.org/1999/02/22-rdf-syntax-ns#"
   xmlns:svg="http://www.w3.org/2000/svg"
   xmlns="http://www.w3.org/2000/svg"
   xmlns:sodipodi="http://sodipodi.sourceforge.net/DTD/sodipodi-0.dtd"
   xmlns:inkscape="http://www.inkscape.org/namespaces/inkscape"
   width="200"
   height="200"
   id="svg2"
   version="1.1"
   inkscape:version="0.48.4 r9939"
   sodipodi:docname="fszmq_logo.svg"
   inkscape:export-filename="C:\Development\fszmq\docs\files\img\fszmq_logo.png"
   inkscape:export-xdpi="90"
   inkscape:export-ydpi="90">
  <defs
     id="defs4" />
  <sodipodi:namedview
     id="base"
     pagecolor="#ffffff"
     bordercolor="#666666"
     borderopacity="1.0"
     inkscape:pageopacity="0.0"
     inkscape:pageshadow="2"
     inkscape:zoom="0.94397206"
     inkscape:cx="57.152533"
     inkscape:cy="109.72963"
     inkscape:document-units="px"
     inkscape:current-layer="layer1"
     showgrid="false"
     width="128px"
     guidetolerance="10000"
     showguides="true"
     inkscape:guide-bbox="true"
     inkscape:window-width="1280"
     inkscape:window-height="660"
     inkscape:window-x="-8"
     inkscape:window-y="-8"
     inkscape:window-maximized="1"
     inkscape:snap-global="true"
     objecttolerance="10000">
    <inkscape:grid
       type="xygrid"
       id="grid2985"
       empspacing="5"
       visible="true"
       enabled="true"
       snapvisiblegridlinesonly="true" />
    <sodipodi:guide
       orientation="0,1"
       position="-55,200"
       id="guide3009" />
    <sodipodi:guide
       orientation="1,0"
       position="0,105"
       id="guide3011" />
    <sodipodi:guide
       orientation="1,0"
       position="200,70"
       id="guide3013" />
    <sodipodi:guide
       orientation="0,1"
       position="110,0"
       id="guide3015" />
    <sodipodi:guide
       orientation="1,0"
       position="1610,-310"
       id="guide3047" />
  </sodipodi:namedview>
  <metadata
     id="metadata7">
    <rdf:RDF>
      <cc:Work
         rdf:about="">
        <dc:format>image/svg+xml</dc:format>
        <dc:type
           rdf:resource="http://purl.org/dc/dcmitype/StillImage" />
        <dc:title></dc:title>
      </cc:Work>
    </rdf:RDF>
  </metadata>
  <g
     inkscape:label="Layer 1"
     inkscape:groupmode="layer"
     id="layer1"
     transform="translate(0,-852.3622)">
    <rect
       style="fill:#ff0000;fill-opacity:1;stroke:none"
       id="rect3017"
       width="200"
       height="200"
       x="0"
       y="2.8421709e-014"
       transform="translate(0,852.3622)"
       inkscape:export-filename="D:\Working\fszmq\docs\files\img\fszmq_logo_old.png"
       inkscape:export-xdpi="92"
       inkscape:export-ydpi="92" />
    <path
       id="path3901"
       style="fill:#ff7d7d;fill-opacity:1;stroke:none"
       d="m 110.01994,857.61796 20.16024,19.77131 20.03525,-19.64904 0.0311,38.41436 -7.58318,-0.006 -0.0629,-20.25915 -12.50483,11.9721 -12.43132,-12.17413 0.0633,20.44204 -7.6762,-0.0519 z m 64.18916,0.0609 c -11.13053,-0.009 -20.14049,8.84826 -20.13163,19.78956 0.009,10.94135 9.03319,19.82247 20.16373,19.83101 4.42315,0.003 8.5067,-1.39766 11.82921,-3.77074 l 3.73162,3.60567 5.09091,-5.25456 -3.73163,-3.63691 c 2.03587,-3.0949 3.22534,-6.78195 3.22213,-10.74358 -0.009,-10.94125 -9.04378,-19.81192 -20.17434,-19.82045 z m -0.22698,7.4761 c 6.91555,0.005 12.52527,5.51951 12.53078,12.3176 0.001,1.83051 -0.4121,3.56137 -1.13988,5.12224 l -7.27248,-7.09678 -5.34525,5.12947 7.65407,7.40934 c -1.87456,1.09977 -4.06377,1.73579 -6.40731,1.73401 -6.91552,-0.005 -12.52527,-5.51953 -12.53076,-12.31751 -0.006,-6.79801 5.59529,-12.30361 12.51084,-12.2983 z m -87.800054,-7.56449 c -11.13052,-0.009 -20.151107,8.84823 -20.14224,19.78951 0.0033,4.11655 1.283301,7.94266 3.472898,11.11308 l -2.836646,2.76767 5.226584,5.26251 2.878965,-2.81971 c 3.250911,2.20643 7.187511,3.50419 11.432574,3.50745 11.130521,0.009 20.151119,-8.85878 20.142279,-19.79999 -0.003,-4.14585 -1.30776,-7.9939 -3.52589,-11.17569 l 2.80487,-2.74667 -5.21582,-5.12712 -2.804997,2.73642 c -3.250909,-2.20459 -7.187504,-3.50419 -11.432577,-3.50746 z m 0.0379,7.46592 c 2.118911,0.002 4.108932,0.52567 5.859006,1.44142 l -16.96696,16.53287 c -0.900004,-1.69747 -1.411774,-3.62093 -1.413422,-5.66569 -0.0055,-6.7979 5.605905,-12.31397 12.521376,-12.3086 z m 11.085491,6.58938 c 0.919308,1.71371 1.443692,3.66888 1.445368,5.73851 0.0055,6.79793 -5.595314,12.30359 -12.510907,12.29829 -2.122243,-0.002 -4.126751,-0.52432 -5.880221,-1.44146 l 16.94576,-16.59534 z"
       inkscape:connector-curvature="0" />
    <path
       inkscape:connector-curvature="0"
       id="rect4273"
       style="fill:#ff7d7d;fill-opacity:1;stroke:none"
       d="m 42.107993,857.44288 -3.273143,11.97379 -10.187397,-0.008 0.0043,5.32739 8.726004,0.007 -1.414855,5.16112 -7.285789,-0.006 0.0043,5.3274 5.824396,0.004 -2.871951,10.46673 5.931548,1.55321 3.294289,-12.01507 5.189007,0.004 -2.893097,10.50801 5.952744,1.57388 3.315419,-12.077 10.229757,0.008 -0.0043,-5.32739 -8.768362,-0.007 1.393674,-5.16113 7.349328,0.006 -0.0043,-5.32739 -5.887934,-0.005 2.850838,-10.38416 -5.931548,-1.55321 -3.273176,11.93249 -5.167828,-0.004 2.850805,-10.42546 -5.952728,-1.55323 z m 1.623664,17.30494 5.189007,0.004 -1.414854,5.16112 -5.189007,-0.004 1.414854,-5.16111 z m -38.7119625,-17.16273 0.032044,39.57052 6.8301061,-0.0283 -0.01338,-16.51905 13.554958,0.0104 -0.0054,-6.60762 -13.554958,-0.0104 -0.008,-9.91142 13.5816,0.0104 -0.0054,-6.60762 -12.55187,0.16669 -5.5e-5,-0.0678 z" />
    <path
       id="path4073-2-2"
       style="fill:none;stroke:#ffffff;stroke-width:5.42193604;stroke-linecap:butt;stroke-linejoin:miter;stroke-miterlimit:4;stroke-opacity:1;stroke-dasharray:none"
       d="m 127.10093,990.29456 -4e-5,32.53154 m -0.0206,-32.53154 7e-5,16.29154 -54.190422,10e-5 -7.2e-5,16.24 m 54.190424,-32.53164 0.0206,16.29154 54.19864,-3e-4 0.0117,16.24 m -65.07477,-43.37516 -32.531565,5e-5 m 43.396105,-43.37552 -6e-5,16.26584 -54.239911,-3e-5 0.02875,16.26584 m -0.02887,-32.53164 6.2e-5,32.53161 m -54.219457,-32.5315 4.6e-5,16.26565 54.21937,4e-5 0.02882,16.26581 m -10.917726,-32.5034 -1.09e-4,-21.95463 21.949112,-5e-5 1.4e-5,21.95467 z m 54.248036,5e-5 -1e-5,-21.95468 21.94914,10e-6 -3e-5,21.95464 z m -108.5014638,-3e-5 2.658e-4,-21.95442 21.949036,-3e-5 -1.99e-4,21.95454 -10.827686,-9e-5 z m 108.5102538,54.09434 0,-21.95467 21.94911,0 0,21.95462 z m -54.36728,54.42725 -5.2e-5,-21.9545 21.949167,0 -1.24e-4,21.9547 z m 54.24776,-2e-4 2.1e-4,-21.9542 21.94895,-3e-4 1e-5,21.9545 z m -54.109748,-54.16768 1.9e-5,-21.95463 21.949112,-10e-6 2.5e-5,21.9546 z m 108.378278,54.17278 8e-5,-21.9544 21.94917,10e-5 -1e-5,21.9544 z"
       inkscape:connector-curvature="0"
       inkscape:export-filename="D:\Working\fszmq\docs\files\img\fszmq_logo_old.png"
       inkscape:export-xdpi="92"
       inkscape:export-ydpi="92" />
    <rect
       style="fill:#ff0000;fill-opacity:1;stroke:none"
       id="rect3017-4"
       width="200"
       height="200"
       x="-274.3638"
       y="852.56055" />
    <path
       id="path3901-8"
       style="fill:#ff7d7d;fill-opacity:1;stroke:none"
       d="m -99.927896,990.50489 c 2.0458,3.8135 3.2127,8.1644 3.2162,12.76991 0.022,15.1274 -12.451204,27.3793 -27.840504,27.3676 -4.7226,0 -9.1833,-1.1668 -13.0853,-3.2078 l 37.709604,-36.92971 z m -24.668604,-14.6634 c 4.7151,0 9.1435,1.1699 13.0381,3.2075 l -37.7568,36.79081 c -2.0028,-3.7775 -3.1415,-8.0577 -3.1453,-12.6079 -0.022,-15.12741 12.4749,-27.40251 27.864,-27.39041 z m -0.085,-16.6139 c -24.7688,-0.022 -44.8424,19.69 -44.8228,44.03761 0,9.1605 2.8557,17.675 7.7282,24.7301 l -6.3123,6.1591 11.6308,11.7106 6.4065,-6.2749 c 7.2345,4.9101 15.9946,7.7979 25.441,7.8052 24.768704,0.022 44.842204,-19.7136 44.822704,-44.0611 0,-9.22561 -2.9103,-17.78881 -7.8461,-24.86921 l 6.2417,-6.1122 -11.6068,-11.4095 -6.242,6.0893 c -7.234104,-4.9056 -15.994404,-7.7977 -25.440904,-7.805 z"
       inkscape:connector-curvature="0" />
    <path
       id="path3027"
       style="fill:#ff7d7d;fill-opacity:1;stroke:none"
       d="m -234.67,898.44242 12.3008,0 -3.3541,12.23458 -12.3007,0 3.354,-12.23478 z m -3.849,-41.02219 -7.759,28.3845 -24.1498,-0.024 0,12.62889 20.6854,0.024 -3.3541,12.23468 -17.2714,-0.024 0,12.6288 13.8071,0 -6.8082,24.8121 14.0612,3.682 7.809,-28.4825 12.3011,0 -6.8583,24.9098 14.1112,3.731 7.8593,-28.6291 24.2502,0.024 0,-12.6289 -20.7859,-0.024 3.3038,-12.23468 17.4219,0.024 0,-12.62879 -13.9578,0 6.7583,-24.616 -14.0612,-3.6819 -7.7591,28.2865 -12.2508,0 6.758,-24.7141 -14.1111,-3.682 z"
       inkscape:connector-curvature="0" />
    <path
       id="path4073-2-2-0"
       style="fill:none;stroke:#ffffff;stroke-width:5.42193604;stroke-linecap:butt;stroke-linejoin:miter;stroke-miterlimit:4;stroke-opacity:1;stroke-dasharray:none"
       d="m -147.2863,941.65526 0,-32.53149 m -0.021,32.53149 1e-4,-16.2915 -54.1905,-10e-5 0,-16.23999 m 54.1904,32.53159 0.021,-16.2915 54.1986,3e-4 0.012,-16.23999 m -65.0747,43.37509 -32.5316,0 m 43.3961,43.3755 -1e-4,-16.2658 -54.24,0 0.029,-16.2658 m -0.029,32.5316 2e-4,-32.5316 m -54.2195,32.5315 10e-5,-16.2657 54.2194,0 0.029,-16.2658 m -10.9178,32.5034 -1e-4,21.95464 21.9491,10e-5 0,-21.95474 z m 54.2481,-10e-5 0,21.95474 21.9491,0 0,-21.95464 z m -108.5016,10e-5 4e-4,21.95444 21.949,0 -2e-4,-21.95454 -10.8278,10e-5 z m 108.5103,-54.0944 0,21.9547 21.9492,0 0,-21.9546 z m -54.3673,-54.42717 0,21.95448 21.9492,0 -1e-4,-21.95468 z m 54.2477,2e-4 2e-4,21.95418 21.949,3e-4 0,-21.95448 z m -54.1097,54.16767 0,21.9546 21.9492,0 0,-21.9546 z m 108.3784,-54.17277 0,21.95438 21.9492,-10e-5 0,-21.95438 z"
       inkscape:connector-curvature="0" />
    <rect
       style="fill:#ff0000;fill-opacity:1;stroke:none"
       id="rect3017-4-5"
       width="200"
       height="200"
       x="285.13318"
       y="852.36218"
       inkscape:export-filename="D:\Working\fszmq\docs\files\img\rect4273-7.png"
       inkscape:export-xdpi="92"
       inkscape:export-ydpi="92" />
    <path
       id="path3901-1"
       style="fill:#ff7d7d;fill-opacity:1;stroke:none"
       d="m 395.87944,1008.1704 20.16024,19.7713 20.03525,-19.649 0.0311,38.4143 -7.58318,-0.01 -0.0629,-20.2591 -12.50483,11.9721 -12.43132,-12.1741 0.0633,20.442 -7.6762,-0.052 z m 64.18915,0.061 c -11.13052,-0.01 -20.14048,8.8483 -20.13162,19.7896 0.009,10.9413 9.03319,19.8224 20.16372,19.831 4.42315,0 8.5067,-1.3977 11.82921,-3.7708 l 3.73162,3.6057 5.09091,-5.2545 -3.73163,-3.637 c 2.03587,-3.0949 3.22534,-6.7819 3.22213,-10.7435 -0.009,-10.9413 -9.04378,-19.812 -20.17434,-19.8205 z m -0.22698,7.4761 c 6.91555,0 12.52527,5.5195 12.53078,12.3176 10e-4,1.8305 -0.4121,3.5614 -1.13988,5.1223 l -7.27248,-7.0968 -5.34525,5.1294 7.65407,7.4094 c -1.87456,1.0998 -4.06377,1.7358 -6.40731,1.734 -6.91552,-0.01 -12.52526,-5.5195 -12.53075,-12.3175 -0.006,-6.798 5.59528,-12.3036 12.51083,-12.2983 z m -87.80005,-7.5645 c -11.13052,-0.01 -20.15111,8.8483 -20.14224,19.7895 0.003,4.1166 1.2833,7.9427 3.4729,11.1131 l -2.83665,2.7677 5.22658,5.2625 2.87897,-2.8197 c 3.25091,2.2064 7.18751,3.5042 11.43258,3.5074 11.13052,0.01 20.15112,-8.8587 20.14228,-19.8 -0.003,-4.1458 -1.30776,-7.9939 -3.52589,-11.1756 l 2.80487,-2.7467 -5.21582,-5.1271 -2.805,2.7364 c -3.25091,-2.2046 -7.18751,-3.5042 -11.43258,-3.5075 z m 0.0379,7.4659 c 2.11891,0 4.10893,0.5257 5.85901,1.4415 l -16.96697,16.5328 c -0.9,-1.6974 -1.41177,-3.6209 -1.41342,-5.6657 -0.005,-6.7979 5.60591,-12.3139 12.52138,-12.3086 z m 11.08549,6.5894 c 0.91931,1.7137 1.44369,3.6689 1.44537,5.7385 0.005,6.798 -5.59531,12.3036 -12.51091,12.2983 -2.12224,0 -4.12675,-0.5243 -5.88022,-1.4414 l 16.94576,-16.5954 z"
       inkscape:connector-curvature="0"
       inkscape:export-filename="D:\Working\fszmq\docs\files\img\rect4273-7.png"
       inkscape:export-xdpi="92"
       inkscape:export-ydpi="92" />
    <g
       id="g3056"
       transform="matrix(-0.70710678,-0.70710678,0.70710678,-0.70710678,-10.794328,1890.3774)"
       inkscape:export-filename="D:\Working\fszmq\docs\files\img\rect4273-7.png"
       inkscape:export-xdpi="92"
       inkscape:export-ydpi="92">
      <path
         inkscape:export-ydpi="92"
         inkscape:export-xdpi="92"
         inkscape:export-filename="D:\Working\fszmq\docs\files\img\fszmq_logo_alt.png"
         inkscape:connector-curvature="0"
         id="path3090"
         d="m 411.39675,1010.5911 15.52429,15.5246 15.52036,-15.5205 -15.52436,-15.52432 z"
         style="fill:none;stroke:#ffffff;stroke-width:5.42193604;stroke-linecap:butt;stroke-linejoin:miter;stroke-miterlimit:4;stroke-opacity:1;stroke-dasharray:none" />
      <path
         inkscape:export-ydpi="92"
         inkscape:export-xdpi="92"
         inkscape:export-filename="D:\Working\fszmq\docs\files\img\fszmq_logo_alt.png"
         inkscape:connector-curvature="0"
         id="path3088"
         d="m 414.46374,917.2467 0,21.9548 21.9491,0 0,-21.9547 z"
         style="fill:none;stroke:#ffffff;stroke-width:5.42193604;stroke-linecap:butt;stroke-linejoin:miter;stroke-miterlimit:4;stroke-opacity:1;stroke-dasharray:none" />
      <path
         inkscape:export-ydpi="92"
         inkscape:export-xdpi="92"
         inkscape:export-filename="D:\Working\fszmq\docs\files\img\fszmq_logo_alt.png"
         inkscape:connector-curvature="0"
         id="path3086"
         d="m 374.15848,1011.4376 4e-4,21.9545 21.949,0 -2e-4,-21.9546 -10.8278,10e-5 z"
         style="fill:none;stroke:#ffffff;stroke-width:5.42193604;stroke-linecap:butt;stroke-linejoin:miter;stroke-miterlimit:4;stroke-opacity:1;stroke-dasharray:none" />
      <path
         inkscape:export-ydpi="92"
         inkscape:export-xdpi="92"
         inkscape:export-filename="D:\Working\fszmq\docs\files\img\fszmq_logo_alt.png"
         inkscape:connector-curvature="0"
         id="path3084"
         d="m 374.15858,941.38483 0,21.9547 21.9492,0 0,-21.9546 z"
         style="fill:none;stroke:#ffffff;stroke-width:5.42193604;stroke-linecap:butt;stroke-linejoin:miter;stroke-miterlimit:4;stroke-opacity:1;stroke-dasharray:none" />
      <path
         inkscape:export-ydpi="92"
         inkscape:export-xdpi="92"
         inkscape:export-filename="D:\Working\fszmq\docs\files\img\fszmq_logo_alt.png"
         inkscape:connector-curvature="0"
         id="path3082"
         d="m 318.82428,941.44818 0,21.9544 21.9492,0 -1e-4,-21.9546 z"
         style="fill:none;stroke:#ffffff;stroke-width:5.42193604;stroke-linecap:butt;stroke-linejoin:miter;stroke-miterlimit:4;stroke-opacity:1;stroke-dasharray:none" />
      <path
         inkscape:export-ydpi="92"
         inkscape:export-xdpi="92"
         inkscape:export-filename="D:\Working\fszmq\docs\files\img\fszmq_logo_alt.png"
         inkscape:connector-curvature="0"
         id="path3080"
         d="m 414.64185,877.08382 2e-4,21.9541 21.949,3e-4 0,-21.9544 z"
         style="fill:none;stroke:#ffffff;stroke-width:5.42193604;stroke-linecap:butt;stroke-linejoin:miter;stroke-miterlimit:4;stroke-opacity:1;stroke-dasharray:none" />
      <path
         inkscape:export-ydpi="92"
         inkscape:export-xdpi="92"
         inkscape:export-filename="D:\Working\fszmq\docs\files\img\fszmq_logo_alt.png"
         inkscape:connector-curvature="0"
         id="path3078"
         d="m 331.19507,1010.5544 15.52425,15.5242 15.52043,-15.5204 -15.52425,-15.52417 z"
         style="fill:none;stroke:#ffffff;stroke-width:5.42193604;stroke-linecap:butt;stroke-linejoin:miter;stroke-miterlimit:4;stroke-opacity:1;stroke-dasharray:none" />
      <path
         inkscape:export-ydpi="92"
         inkscape:export-xdpi="92"
         inkscape:export-filename="D:\Working\fszmq\docs\files\img\fszmq_logo_alt.png"
         inkscape:connector-curvature="0"
         id="path4073-2-2-0-3"
         d="m 373.99218,876.99049 0,21.9543 21.9492,-10e-5 0,-21.9543 z"
         style="fill:none;stroke:#ffffff;stroke-width:5.42193604;stroke-linecap:butt;stroke-linejoin:miter;stroke-miterlimit:4;stroke-opacity:1;stroke-dasharray:none" />
      <path
         inkscape:export-ydpi="92"
         inkscape:export-xdpi="92"
         inkscape:export-filename="D:\Working\fszmq\docs\files\img\fszmq_logo_alt.png"
         sodipodi:nodetypes="cc"
         inkscape:connector-curvature="0"
         id="path3200-00-0"
         d="m 385,962.3622 0,50"
         style="fill:none;stroke:#ffffff;stroke-width:4;stroke-linecap:butt;stroke-linejoin:miter;stroke-miterlimit:4;stroke-opacity:1;stroke-dasharray:none" />
      <path
         inkscape:export-ydpi="92"
         inkscape:export-xdpi="92"
         inkscape:export-filename="D:\Working\fszmq\docs\files\img\fszmq_logo_alt.png"
         sodipodi:nodetypes="cc"
         inkscape:connector-curvature="0"
         id="path3200-00-0-7"
         d="m 340,952.3622 35,0"
         style="fill:none;stroke:#ffffff;stroke-width:4;stroke-linecap:butt;stroke-linejoin:miter;stroke-miterlimit:4;stroke-opacity:1;stroke-dasharray:none" />
      <path
         inkscape:export-ydpi="92"
         inkscape:export-xdpi="92"
         inkscape:export-filename="D:\Working\fszmq\docs\files\img\fszmq_logo_alt.png"
         sodipodi:nodetypes="cc"
         inkscape:connector-curvature="0"
         id="path3200-00-0-4"
         d="m 355,1002.3622 30,-40"
         style="fill:none;stroke:#ffffff;stroke-width:4;stroke-linecap:butt;stroke-linejoin:miter;stroke-miterlimit:4;stroke-opacity:1;stroke-dasharray:none" />
      <path
         inkscape:export-ydpi="92"
         inkscape:export-xdpi="92"
         inkscape:export-filename="D:\Working\fszmq\docs\files\img\fszmq_logo_alt.png"
         sodipodi:nodetypes="cc"
         inkscape:connector-curvature="0"
         id="path3200-00-0-0"
         d="m 385,962.3622 35,40"
         style="fill:none;stroke:#ffffff;stroke-width:4;stroke-linecap:butt;stroke-linejoin:miter;stroke-miterlimit:4;stroke-opacity:1;stroke-dasharray:none" />
      <path
         inkscape:export-ydpi="92"
         inkscape:export-xdpi="92"
         inkscape:export-filename="D:\Working\fszmq\docs\files\img\fszmq_logo_alt.png"
         sodipodi:nodetypes="cc"
         inkscape:connector-curvature="0"
         id="path3200-00-0-48"
         d="m 385,897.3622 0,45"
         style="fill:none;stroke:#ffffff;stroke-width:4;stroke-linecap:butt;stroke-linejoin:miter;stroke-miterlimit:4;stroke-opacity:1;stroke-dasharray:none" />
      <path
         inkscape:export-ydpi="92"
         inkscape:export-xdpi="92"
         inkscape:export-filename="D:\Working\fszmq\docs\files\img\fszmq_logo_alt.png"
         sodipodi:nodetypes="cc"
         inkscape:connector-curvature="0"
         id="path3200-00-0-8"
         d="m 395,887.3622 20,0"
         style="fill:none;stroke:#ffffff;stroke-width:4;stroke-linecap:butt;stroke-linejoin:miter;stroke-miterlimit:4;stroke-opacity:1;stroke-dasharray:none" />
      <path
         inkscape:export-ydpi="92"
         inkscape:export-xdpi="92"
         inkscape:export-filename="D:\Working\fszmq\docs\files\img\fszmq_logo_alt.png"
         sodipodi:nodetypes="cc"
         inkscape:connector-curvature="0"
         id="path3200-00-0-2"
         d="m 425,917.3622 0,-20"
         style="fill:none;stroke:#ffffff;stroke-width:4;stroke-linecap:butt;stroke-linejoin:miter;stroke-miterlimit:4;stroke-opacity:1;stroke-dasharray:none" />
    </g>
    <path
       inkscape:connector-curvature="0"
       id="rect4273-7"
       style="fill:#ff7d7d;fill-opacity:1;stroke:none"
       d="m 332.61218,857.39344 -3.76762,13.78272 -11.72646,-0.009 0.005,6.13222 10.04427,0.008 -1.6286,5.94083 -8.38649,-0.007 0.005,6.13223 6.70431,0.005 -3.30583,12.04798 6.82766,1.78787 3.79197,-13.83024 5.97293,0.005 -3.33017,12.0955 6.85205,1.81165 3.81629,-13.90152 11.77521,0.009 -0.005,-6.13221 -10.09303,-0.008 1.60422,-5.94084 8.45962,0.007 -0.005,-6.13222 -6.77744,-0.005 3.28153,-11.95294 -6.82766,-1.78785 -3.76766,13.73517 -5.94856,-0.005 3.28149,-12.00048 -6.85203,-1.78788 z m 1.86896,19.91927 5.97293,0.005 -1.6286,5.94084 -5.97293,-0.005 1.6286,-5.94082 z m -44.56034,-19.75558 0.0368,45.5486 7.86197,-0.0326 -0.0155,-19.01465 15.60275,0.012 -0.005,-7.60586 -15.60275,-0.012 -0.009,-11.40877 15.63342,0.012 -0.005,-7.60585 -14.44814,0.19187 -6e-5,-0.078 z"
       inkscape:export-xdpi="92"
       inkscape:export-ydpi="92" />
  </g>
</svg>
