<?xml version="1.0" encoding="UTF-8" standalone="no"?>
<!-- Created with Inkscape (http://www.inkscape.org/) -->

<svg
   xmlns:dc="http://purl.org/dc/elements/1.1/"
   xmlns:cc="http://creativecommons.org/ns#"
   xmlns:rdf="http://www.w3.org/1999/02/22-rdf-syntax-ns#"
   xmlns:svg="http://www.w3.org/2000/svg"
   xmlns="http://www.w3.org/2000/svg"
   xmlns:sodipodi="http://sodipodi.sourceforge.net/DTD/sodipodi-0.dtd"
   xmlns:inkscape="http://www.inkscape.org/namespaces/inkscape"
   width="200"
   height="200"
   id="svg2"
   version="1.1"
   inkscape:version="0.48.4 r9939"
   sodipodi:docname="fszmq_logo.svg"
   inkscape:export-filename="C:\Development\fszmq\docs\files\img\fszmq_logo.png"
   inkscape:export-xdpi="90"
   inkscape:export-ydpi="90">
  <defs
     id="defs4" />
  <sodipodi:namedview
     id="base"
     pagecolor="#ffffff"
     bordercolor="#666666"
     borderopacity="1.0"
     inkscape:pageopacity="0.0"
     inkscape:pageshadow="2"
     inkscape:zoom="1"
     inkscape:cx="98.882511"
     inkscape:cy="135.31918"
     inkscape:document-units="px"
     inkscape:current-layer="layer1"
     showgrid="false"
     width="128px"
     guidetolerance="10000"
     showguides="false"
     inkscape:guide-bbox="true"
     inkscape:window-width="2560"
     inkscape:window-height="1537"
     inkscape:window-x="-8"
     inkscape:window-y="-8"
     inkscape:window-maximized="1"
     inkscape:snap-global="true"
     objecttolerance="10000">
    <inkscape:grid
       type="xygrid"
       id="grid2985"
       empspacing="5"
       visible="true"
       enabled="true"
       snapvisiblegridlinesonly="true" />
    <sodipodi:guide
       orientation="0,1"
       position="-55,200"
       id="guide3009" />
    <sodipodi:guide
       orientation="1,0"
       position="0,105"
       id="guide3011" />
    <sodipodi:guide
       orientation="1,0"
       position="200,70"
       id="guide3013" />
    <sodipodi:guide
       orientation="0,1"
       position="110,0"
       id="guide3015" />
    <sodipodi:guide
       orientation="0,1"
       position="-160,335"
       id="guide4266" />
  </sodipodi:namedview>
  <metadata
     id="metadata7">
    <rdf:RDF>
      <cc:Work
         rdf:about="">
        <dc:format>image/svg+xml</dc:format>
        <dc:type
           rdf:resource="http://purl.org/dc/dcmitype/StillImage" />
        <dc:title></dc:title>
      </cc:Work>
    </rdf:RDF>
  </metadata>
  <g
     inkscape:label="Layer 1"
     inkscape:groupmode="layer"
     id="layer1"
     transform="translate(0,-852.3622)">
    <rect
       style="fill:#ff0000;fill-opacity:1;stroke:none"
       id="rect3017"
       width="200"
       height="200"
       x="0"
       y="2.8421709e-014"
       transform="translate(0,852.3622)" />
    <g
       id="g4335"
       transform="matrix(0.67774786,5.2025469e-4,5.3508713e-4,0.66076185,140.18978,383.57484)">
      <path
         inkscape:connector-curvature="0"
         d="m -45.081286,717.45451 29.722334,29.89859 29.585003,-29.76024 0,58.13648 -11.1887897,0 -0.0686,-30.66024 -18.4648883,18.13316 -18.327558,-18.40994 0.06898,30.93702 -11.325975,-0.0696 z m 94.709497,0.0176 c -16.42283,0 -29.72739,13.41441 -29.72738,29.97302 -3e-5,16.55869 13.30456,29.98894 29.7274,29.98894 6.52625,10e-5 12.5531,-2.12512 17.45821,-5.7204 l 5.50161,5.4525 7.5178,-7.9582 -5.50159,-5.49978 c 3.00758,-4.68621 4.76702,-10.26759 4.76702,-16.26313 0,-16.55854 -13.32022,-29.97297 -29.74307,-29.97295 z m -0.34384,11.31464 c 10.20372,0 18.47414,8.33871 18.47414,18.62696 0,2.7703 -0.6123,5.39028 -1.68798,7.75335 l -10.72189,-10.73186 -7.89292,7.76918 11.28455,11.20445 c -2.76718,1.66657 -5.99808,2.63167 -9.45591,2.6317 -10.20368,-3e-5 -18.47414,-8.33874 -18.47412,-18.62682 0,-10.28815 8.27042,-18.62686 18.47414,-18.62686 z M -80.253455,717.44061 c -16.422804,-10e-6 -29.743045,13.41437 -29.743035,29.97295 0,6.23 1.88399,12.01897 5.1109,16.81456 l -4.18871,4.19191 7.70541,7.95823 4.251213,-4.27071 c 4.794004,3.33545 10.600812,5.29491 16.864296,5.29491 16.422806,0 29.743073,-13.43033 29.7431,-29.98881 -4e-6,-6.27435 -1.920006,-12.09649 -5.189005,-16.90925 l 4.141798,-4.16008 -7.689697,-7.75336 -4.141969,4.14457 c -4.794004,-3.33266 -10.600802,-5.2949 -16.864301,-5.29492 z m 0.047,11.29892 c 3.1264,-10e-6 6.062002,0.79077 8.6431,2.17465 l -25.054095,25.04064 c -1.325906,-2.56792 -2.078711,-5.4783 -2.0787,-8.57285 -1e-5,-10.28797 8.286091,-18.64253 18.489695,-18.64244 z m 16.348502,9.95952 c 1.354369,2.59247 2.125748,5.55083 2.125748,8.68301 -7.6e-5,10.28803 -8.270452,18.62683 -18.474235,18.62684 -3.131317,5e-5 -6.088295,-0.78871 -8.674402,-2.17469 l 25.022889,-25.13516 z"
         style="fill:#ff7d7d;fill-opacity:1;stroke:none"
         id="path3901" />
      <path
         d="m -145.28351,717.26845 -4.84375,18.125 -15.03125,0 0,8.0625 12.875,0 -2.09375,7.8125 -10.75,0 0,8.0625 8.59375,0 -4.25,15.84375 8.75,2.34375 4.875,-18.1875 7.65625,0 -4.28125,15.90625 8.78125,2.375 4.90625,-18.28125 15.09375,0 0,-8.0625 -12.9375,0 2.0625,-7.8125 10.84375,0 0,-8.0625 -8.6875,0 4.21875,-15.71875 -8.75,-2.34375 -4.84375,18.0625 -7.625,0 4.21875,-15.78125 -8.78125,-2.34375 z m 2.375,26.1875 7.65625,0 -2.09375,7.8125 -7.65625,0 2.09375,-7.8125 z m -57.09806,-25.9292 0,59.88621 10.07769,-0.0508 0,-25 20,0 0,-10 -20,0 0,-15 20.03931,4e-5 0,-10 -18.52018,0.26685 0,-0.10266 z"
         style="fill:#ff7d7d;fill-opacity:1;stroke:none"
         id="rect4273"
         inkscape:connector-curvature="0" />
    </g>
    <path
       id="path4073-2-2"
       style="fill:none;stroke:#ffffff;stroke-width:5.42193604;stroke-linecap:butt;stroke-linejoin:miter;stroke-miterlimit:4;stroke-opacity:1;stroke-dasharray:none"
       d="m 127.10093,990.29456 -4e-5,32.53154 m -0.0206,-32.53154 7e-5,16.29154 -54.190422,10e-5 -7.2e-5,16.24 m 54.190424,-32.53164 0.0206,16.29154 54.19864,-3e-4 0.0117,16.24 m -65.07477,-43.37516 -32.531565,5e-5 m 43.396105,-43.37552 -6e-5,16.26584 -54.239911,-3e-5 0.02875,16.26584 m -0.02887,-32.53164 6.2e-5,32.53161 m -54.219457,-32.5315 4.6e-5,16.26565 54.21937,4e-5 0.02882,16.26581 m -10.917726,-32.5034 -1.09e-4,-21.95463 21.949112,-5e-5 1.4e-5,21.95467 z m 54.248036,5e-5 -1e-5,-21.95468 21.94914,10e-6 -3e-5,21.95464 z m -108.5014638,-3e-5 2.658e-4,-21.95442 21.949036,-3e-5 -1.99e-4,21.95454 -10.827686,-9e-5 z m 108.5102538,54.09434 0,-21.95467 21.94911,0 0,21.95462 z m -54.36728,54.42725 -5.2e-5,-21.9545 21.949167,0 -1.24e-4,21.9547 z m 54.24776,-2e-4 2.1e-4,-21.9542 21.94895,-3e-4 1e-5,21.9545 z m -54.109748,-54.16768 1.9e-5,-21.95463 21.949112,-10e-6 2.5e-5,21.9546 z m 108.378278,54.17278 8e-5,-21.9544 21.94917,10e-5 -1e-5,21.9544 z"
       inkscape:connector-curvature="0" />
  </g>
</svg>
